{
	"bufferViews":[{
		"target":34963,
		"buffer":0,
		"byteOffset":0,
		"byteLength":228
	},
	{
		"target":34962,
		"buffer":0,
		"byteOffset":228,
		"byteLength":1536,
		"byteStride":32
	},
	{
		"target":34963,
		"buffer":1,
		"byteOffset":0,
		"byteLength":53166
	},
	{
		"target":34962,
		"buffer":1,
		"byteOffset":53168,
		"byteLength":326912,
		"byteStride":32
	},
	{
		"target":34963,
		"buffer":2,
		"byteOffset":0,
		"byteLength":210924
	},
	{
		"target":34962,
		"buffer":2,
		"byteOffset":210924,
		"byteLength":1445344,
		"byteStride":32
	}],
	"asset":{
		"version":"2.0",
		"generator":"Maxon Cinema 4D 2023.2.0 (#200000219)",
		"copyright":""
	},
	"scenes":[{
		"nodes":[0]
	}],
	"nodes":[{
		"name":"Scene 0",
		"translation":[0.0,
		3.040463924407959,
		0.0],
		"rotation":[0.0,
		0.0,
		0.0,
		-1.0],
		"scale":[1.0,
		1.0,
		1.0],
		"children":[1]
	},
	{
		"name":"Truck_1",
		"children":[2,
		3,
		4]
	},
	{
		"name":"Glass",
		"mesh":0
	},
	{
		"name":"Coal",
		"mesh":1
	},
	{
		"name":"Body",
		"mesh":2
	}],
	"meshes":[{
		"name":"Glass",
		"primitives":[{
			"attributes":{
				"POSITION":1,
				"NORMAL":2,
				"TEXCOORD_0":3
			},
			"indices":0
		}]
	},
	{
		"name":"Coal",
		"primitives":[{
			"attributes":{
				"POSITION":5,
				"NORMAL":6,
				"TEXCOORD_0":7
			},
			"indices":4
		}]
	},
	{
		"name":"Body",
		"primitives":[{
			"attributes":{
				"POSITION":9,
				"NORMAL":10,
				"TEXCOORD_0":11
			},
			"indices":8
		}]
	}],
	"accessors":[{
		"bufferView":0,
		"type":"SCALAR",
		"componentType":5123,
		"count":114,
		"byteOffset":0,
		"min":[0],
		"max":[47]
	},
	{
		"bufferView":1,
		"type":"VEC3",
		"componentType":5126,
		"count":48,
		"byteOffset":0,
		"min":[-4.496127128601074,
		1.5499383211135865,
		0.9991556406021118],
		"max":[-2.239107131958008,
		2.7695529460906984,
		3.0061628818511965]
	},
	{
		"bufferView":1,
		"type":"VEC3",
		"componentType":5126,
		"count":48,
		"byteOffset":12,
		"min":[-0.9397186040878296,
		0.0,
		0.0],
		"max":[0.0,
		0.34194883704185488,
		1.0]
	},
	{
		"bufferView":1,
		"type":"VEC2",
		"componentType":5126,
		"count":48,
		"byteOffset":24,
		"min":[0.047393798828125,
		0.08254432678222656],
		"max":[0.4961090087890625,
		0.8785247802734375]
	},
	{
		"bufferView":2,
		"type":"SCALAR",
		"componentType":5123,
		"count":26583,
		"byteOffset":0,
		"min":[0],
		"max":[10215]
	},
	{
		"bufferView":3,
		"type":"VEC3",
		"componentType":5126,
		"count":10216,
		"byteOffset":0,
		"min":[-1.067408561706543,
		0.4316451847553253,
		-2.7734057903289797],
		"max":[7.698989391326904,
		3.17708158493042,
		3.0901122093200685]
	},
	{
		"bufferView":3,
		"type":"VEC3",
		"componentType":5126,
		"count":10216,
		"byteOffset":12,
		"min":[-0.9995816946029663,
		-1.0,
		-0.9974340796470642],
		"max":[1.0,
		0.9999284148216248,
		0.9999687671661377]
	},
	{
		"bufferView":3,
		"type":"VEC2",
		"componentType":5126,
		"count":10216,
		"byteOffset":24,
		"min":[0.000030517578125,
		0.000030517578125],
		"max":[1.0,
		1.0]
	},
	{
		"bufferView":4,
		"type":"SCALAR",
		"componentType":5123,
		"count":105462,
		"byteOffset":0,
		"min":[0],
		"max":[45166]
	},
	{
		"bufferView":5,
		"type":"VEC3",
		"componentType":5126,
		"count":45167,
		"byteOffset":0,
		"min":[-5.566388130187988,
		-3.16300892829895,
		-3.662750482559204],
		"max":[7.881139278411865,
		3.1182100772857668,
		3.8069896697998049]
	},
	{
		"bufferView":5,
		"type":"VEC3",
		"componentType":5126,
		"count":45167,
		"byteOffset":12,
		"min":[-1.0,
		-1.0,
		-1.0],
		"max":[1.0,
		1.0,
		1.0]
	},
	{
		"bufferView":5,
		"type":"VEC2",
		"componentType":5126,
		"count":45167,
		"byteOffset":24,
		"min":[0.0003261193633079529,
		0.0003261193633079529],
		"max":[0.9990234375,
		0.9984893798828125]
	}],
	"buffers":[{
		"uri":"data:application/octet-stream;base64,",
		"byteLength":1764
	},
	{
		"uri":"data:application/octet-stream;base64,",
		"byteLength":380080
	},
	{
		"uri":"data:application/octet-stream;base64,",
		"byteLength":1656268
	}]
}